HIERARCHY
ROOT Hips
{
	OFFSET 0.00 86.18 0.00
	CHANNELS 6 Xposition Yposition Zposition Yrotation Xrotation Zrotation
	JOINT RightUpLeg
	{
		OFFSET -9.25 0.00 0.00
		CHANNELS 6 Xposition Yposition Zposition Yrotation Xrotation Zrotation
		JOINT RightLeg
		{
			OFFSET 0.00 -42.00 0.00
			CHANNELS 6 Xposition Yposition Zposition Yrotation Xrotation Zrotation
			JOINT RightFoot
			{
				OFFSET 0.00 -42.00 0.00
				CHANNELS 6 Xposition Yposition Zposition Yrotation Xrotation Zrotation
				End Site
				{
					OFFSET 0 -1.14 11.36
				}
			}
		}
	}
	JOINT LeftUpLeg
	{
		OFFSET 9.25 0.00 0.00
		CHANNELS 6 Xposition Yposition Zposition Yrotation Xrotation Zrotation
		JOINT LeftLeg
		{
			OFFSET 0.00 -42.00 0.00
			CHANNELS 6 Xposition Yposition Zposition Yrotation Xrotation Zrotation
			JOINT LeftFoot
			{
				OFFSET 0.00 -42.00 0.00
				CHANNELS 6 Xposition Yposition Zposition Yrotation Xrotation Zrotation
				End Site
				{
					OFFSET 0 -1.14 11.36
				}
			}
		}
	}
	JOINT Spine
	{
		OFFSET 0.00 10.46 0.00
		CHANNELS 6 Xposition Yposition Zposition Yrotation Xrotation Zrotation
		JOINT Spine1
		{
			OFFSET 0.00 9.75 0.00
			CHANNELS 6 Xposition Yposition Zposition Yrotation Xrotation Zrotation
			JOINT Spine2
			{
				OFFSET 0.00 10.15 0.00
				CHANNELS 6 Xposition Yposition Zposition Yrotation Xrotation Zrotation
				JOINT Spine3
				{
					OFFSET 0.00 9.75 0.00
					CHANNELS 6 Xposition Yposition Zposition Yrotation Xrotation Zrotation
			 		JOINT Neck
					{
						OFFSET 0.00 10.42 0.00
						CHANNELS 6 Xposition Yposition Zposition Yrotation Xrotation Zrotation
						JOINT Head
						{
							OFFSET 0.00 9.50 0.00
							CHANNELS 6 Xposition Yposition Zposition Yrotation Xrotation Zrotation
							End Site
							{
								OFFSET 0 16.00 0
							}
						}    
					} 
					JOINT RightShoulder
	 					{
						OFFSET -3.20 6.94 0.00
						CHANNELS 6 Xposition Yposition Zposition Yrotation Xrotation Zrotation
						JOINT RightArm
						{
							OFFSET -16.00 0.00 0.00
							CHANNELS 6 Xposition Yposition Zposition Yrotation Xrotation Zrotation
							JOINT RightForeArm
							{
								OFFSET -26.50 0.00 0.00
								CHANNELS 6 Xposition Yposition Zposition Yrotation Xrotation Zrotation
								JOINT RightHand
								{
									OFFSET -26.00 0.00 0.00
									CHANNELS 6 Xposition Yposition Zposition Yrotation Xrotation Zrotation
									End Site
									{
										OFFSET -17.50 0 0
									}
								}
							}
						}	
					}
					JOINT LeftShoulder
					{
						OFFSET 3.20 6.94 0.00
						CHANNELS 6 Xposition Yposition Zposition Yrotation Xrotation Zrotation
						JOINT LeftArm
						{
							OFFSET 16.00 0.00 0.00
							CHANNELS 6 Xposition Yposition Zposition Yrotation Xrotation Zrotation
							JOINT LeftForeArm
							{
								OFFSET 26.50 0.00 0.00
								CHANNELS 6 Xposition Yposition Zposition Yrotation Xrotation Zrotation
								JOINT LeftHand
								{
									OFFSET 26.00 0.00 0.00
									CHANNELS 6 Xposition Yposition Zposition Yrotation Xrotation Zrotation
									End Site
									{
										OFFSET 17.50 0 0
									}
								}
							}
						}
					}     			
				}
			}
		} 
	} 
}
MOTION
Frames: 12
Frame Time: 0.010
1.93 92.19 2.11 94.78 -3.78 -3.53 -9.28 0.01 -0.15 -19.10 6.21 -0.35 0.02 -42.00 -0.13 -5.59 1.92 -1.53 -0.80 -42.06 0.50 -4.22 -4.91 -0.37 9.27 0.01 0.07 -3.45 6.14 8.29 -0.03 -41.89 -0.16 4.83 13.83 2.70 0.39 -41.92 0.15 -9.24 -11.02 -6.68 0.05 10.46 0.02 -8.58 16.90 3.03 0.04 9.75 0.00 -2.05 3.95 1.00 -0.01 10.15 0.00 -3.22 6.21 1.56 0.01 9.75 0.01 0.22 -1.03 -0.23 0.05 10.42 -0.02 0.23 -1.04 -0.24 0.08 9.50 0.01 5.74 -19.40 -5.30 -3.19 6.91 0.08 3.02 -1.97 -2.51 -16.00 -0.03 0.14 9.10 0.31 77.25 -26.47 -0.03 0.10 27.41 10.87 2.48 -26.00 -0.08 0.10 0.34 11.26 5.54 3.21 6.94 -0.05 -6.20 -3.11 -5.11 16.02 0.02 -0.08 -8.39 3.64 -72.61 26.51 0.07 -0.04 -22.24 6.62 -0.58 26.03 0.10 0.01 -1.73 -0.89 -0.64 
1.93 92.19 2.11 94.78 -3.78 -3.53 -9.28 0.01 -0.15 -19.10 6.21 -0.35 0.02 -42.00 -0.13 -5.59 1.92 -1.53 -0.80 -42.06 0.50 -4.22 -4.91 -0.37 9.27 0.01 0.07 -3.45 6.14 8.29 -0.03 -41.89 -0.16 4.83 13.83 2.70 0.39 -41.92 0.15 -9.24 -11.02 -6.68 0.06 10.46 0.01 -8.58 16.90 3.03 0.05 9.75 -0.01 -2.05 3.95 1.00 -0.01 10.15 -0.01 -3.22 6.21 1.56 0.02 9.75 0.01 0.22 -1.03 -0.23 0.06 10.42 -0.03 0.23 -1.04 -0.24 0.08 9.50 0.01 5.74 -19.40 -5.30 -3.18 6.91 0.08 3.02 -1.97 -2.51 -16.00 -0.03 0.14 9.10 0.31 77.25 -26.47 -0.03 0.10 27.41 10.87 2.48 -26.00 -0.08 0.10 0.34 11.26 5.54 3.22 6.94 -0.06 -6.20 -3.11 -5.11 16.02 0.02 -0.08 -8.39 3.64 -72.61 26.51 0.07 -0.04 -22.24 6.62 -0.58 26.03 0.10 0.01 -1.73 -0.89 -0.64 
1.94 92.18 2.13 94.78 -3.78 -3.53 -9.27 0.01 -0.15 -19.10 6.21 -0.35 0.03 -42.00 -0.14 -5.59 1.92 -1.53 -0.80 -42.05 0.50 -4.22 -4.90 -0.37 9.28 0.01 0.09 -3.45 6.14 8.29 -0.03 -41.88 -0.17 4.83 13.83 2.70 0.40 -41.93 0.12 -9.24 -11.03 -6.68 0.06 10.46 0.01 -8.58 16.90 3.03 0.07 9.76 -0.01 -2.05 3.95 1.00 0.01 10.15 -0.01 -3.22 6.21 1.56 0.03 9.75 0.00 0.22 -1.03 -0.23 0.09 10.42 -0.04 0.23 -1.04 -0.24 0.10 9.51 -0.00 5.74 -19.40 -5.30 -3.16 6.91 0.08 3.02 -1.97 -2.51 -16.00 -0.03 0.15 9.10 0.31 77.25 -26.47 -0.03 0.11 27.41 10.87 2.48 -26.00 -0.09 0.11 0.34 11.26 5.54 3.24 6.94 -0.07 -6.20 -3.11 -5.11 16.02 0.02 -0.09 -8.39 3.64 -72.61 26.51 0.08 -0.05 -22.24 6.63 -0.58 26.03 0.12 0.01 -1.73 -0.89 -0.64 
1.97 92.16 2.18 94.78 -3.78 -3.53 -9.25 0.01 -0.16 -19.11 6.21 -0.35 0.05 -42.00 -0.15 -5.59 1.92 -1.53 -0.81 -42.02 0.48 -4.22 -4.90 -0.37 9.29 0.00 0.14 -3.45 6.13 8.29 -0.02 -41.86 -0.17 4.83 13.84 2.70 0.43 -41.96 0.06 -9.25 -11.03 -6.68 0.06 10.46 0.01 -8.58 16.90 3.04 0.08 9.76 -0.02 -2.05 3.95 1.00 0.01 10.15 -0.01 -3.22 6.21 1.56 0.03 9.75 -0.00 0.22 -1.03 -0.23 0.10 10.42 -0.06 0.23 -1.04 -0.24 0.10 9.51 -0.01 5.74 -19.40 -5.31 -3.16 6.91 0.08 3.03 -1.97 -2.51 -16.01 -0.04 0.18 9.10 0.30 77.25 -26.47 -0.03 0.13 27.41 10.87 2.48 -26.00 -0.09 0.13 0.34 11.25 5.54 3.24 6.94 -0.08 -6.20 -3.11 -5.11 16.01 0.02 -0.12 -8.39 3.64 -72.61 26.50 0.08 -0.06 -22.24 6.63 -0.58 26.03 0.15 0.03 -1.73 -0.89 -0.64 
2.01 92.14 2.27 95.06 -3.68 -3.47 -9.25 0.02 -0.14 -19.35 6.33 -0.32 0.00 -42.00 -0.18 -5.31 1.50 -1.35 -0.93 -41.99 0.39 -4.56 -4.84 -0.43 9.27 -0.00 0.08 -3.58 5.41 8.42 -0.04 -41.87 -0.17 4.94 15.04 2.65 0.49 -42.00 0.15 -9.67 -11.59 -6.52 0.07 10.46 -0.01 -8.57 16.87 3.11 0.07 9.76 -0.02 -2.05 3.94 1.02 0.01 10.15 -0.02 -3.21 6.20 1.59 0.04 9.75 -0.01 0.22 -1.04 -0.24 0.11 10.42 -0.07 0.22 -1.05 -0.24 0.12 9.51 -0.00 5.67 -19.55 -5.39 -3.16 6.92 0.07 2.97 -2.04 -2.46 -16.02 -0.02 0.15 9.19 0.23 77.12 -26.48 -0.02 0.09 27.40 10.63 2.43 -26.00 -0.07 0.09 0.37 10.95 5.64 3.24 6.93 -0.09 -6.38 -3.17 -5.04 16.00 0.00 -0.10 -8.18 3.77 -72.72 26.51 0.06 -0.05 -22.62 6.77 -0.56 26.03 0.11 -0.00 -1.87 -0.66 -0.30 
2.01 92.11 2.41 95.48 -3.63 -3.46 -9.24 0.02 -0.13 -19.43 6.52 -0.22 0.02 -42.00 -0.20 -5.33 1.09 -1.32 -1.01 -41.96 0.29 -4.83 -4.88 -0.25 9.23 -0.01 0.02 -3.89 4.64 8.67 -0.06 -41.90 -0.15 5.07 16.51 2.46 0.54 -42.05 0.25 -10.09 -12.21 -6.35 0.08 10.46 -0.01 -8.73 16.90 3.27 0.06 9.75 -0.02 -2.08 3.94 1.07 0.02 10.15 -0.02 -3.27 6.20 1.66 0.05 9.75 -0.01 0.22 -1.04 -0.25 0.12 10.42 -0.07 0.22 -1.05 -0.25 0.13 9.51 -0.01 5.75 -19.63 -5.59 -3.16 6.96 0.00 3.42 -2.04 -2.26 -16.03 0.02 0.07 8.85 0.13 76.72 -26.48 0.01 0.07 27.39 10.40 2.38 -26.00 -0.05 0.07 0.37 10.74 5.73 3.24 6.92 -0.08 -6.37 -3.29 -5.16 15.99 -0.00 -0.09 -8.02 3.95 -72.75 26.51 0.04 -0.05 -23.02 6.94 -0.54 26.03 0.08 -0.01 -1.94 -0.44 0.04 
1.96 92.09 2.62 95.93 -3.56 -3.49 -9.27 0.01 -0.07 -19.21 6.81 0.09 -0.00 -42.00 -0.14 -5.45 0.70 -1.40 -1.08 -41.94 0.24 -5.32 -5.07 0.03 9.22 -0.02 -0.01 -4.07 3.83 8.94 -0.06 -41.91 -0.14 4.97 17.91 2.27 0.60 -42.08 0.27 -10.49 -12.62 -6.23 0.08 10.46 -0.01 -8.84 16.92 3.40 0.05 9.74 -0.01 -2.11 3.94 1.10 0.01 10.15 -0.01 -3.30 6.20 1.72 0.05 9.74 -0.01 0.22 -1.04 -0.26 0.14 10.42 -0.08 0.23 -1.06 -0.26 0.14 9.52 -0.02 5.85 -19.64 -5.78 -3.15 6.96 0.00 3.46 -2.12 -2.24 -16.05 0.03 0.07 8.84 0.07 76.65 -26.48 0.04 0.07 27.38 10.24 2.31 -26.00 -0.03 0.06 0.39 10.66 5.80 3.24 6.92 -0.07 -6.41 -3.42 -5.15 15.97 -0.01 -0.09 -7.91 4.14 -72.80 26.51 0.00 -0.06 -23.41 7.11 -0.50 26.03 0.05 -0.03 -2.07 -0.39 0.38 
1.80 92.09 2.89 96.48 -3.56 -3.59 -9.23 -0.00 -0.04 -18.97 6.93 0.34 0.02 -41.99 -0.11 -5.85 0.63 -1.38 -1.07 -41.94 0.20 -5.70 -5.34 0.32 9.20 -0.03 -0.01 -4.41 3.10 9.28 -0.06 -41.91 -0.13 4.87 19.27 2.04 0.60 -42.08 0.25 -10.89 -12.87 -6.22 0.08 10.46 -0.02 -9.04 17.00 3.56 0.05 9.74 -0.00 -2.15 3.95 1.15 0.01 10.15 -0.00 -3.37 6.21 1.79 0.05 9.74 -0.01 0.23 -1.05 -0.26 0.15 10.42 -0.08 0.23 -1.06 -0.26 0.15 9.52 -0.02 6.02 -19.70 -5.92 -3.15 6.96 0.00 3.54 -2.21 -2.19 -16.09 0.04 0.08 8.78 0.05 76.59 -26.48 0.09 0.07 27.39 10.18 2.20 -26.00 -0.01 0.05 0.41 10.72 5.82 3.25 6.92 -0.07 -6.45 -3.56 -5.16 15.98 -0.01 -0.08 -7.72 4.37 -72.97 26.51 0.00 -0.05 -23.81 7.34 -0.41 26.02 0.04 -0.03 -2.20 -0.41 0.68 
1.57 92.09 3.20 97.07 -3.63 -3.73 -9.21 -0.01 -0.02 -18.58 7.00 0.70 0.03 -41.99 -0.11 -6.52 0.72 -1.44 -1.03 -41.95 0.17 -5.98 -5.69 0.47 9.19 -0.03 0.03 -4.85 2.53 9.59 -0.05 -41.91 -0.08 4.80 20.59 1.78 0.60 -42.06 0.22 -11.20 -13.12 -6.28 0.08 10.46 -0.02 -9.28 17.14 3.73 0.03 9.73 0.01 -2.21 3.98 1.20 0.01 10.15 0.01 -3.45 6.25 1.87 0.05 9.74 -0.00 0.24 -1.05 -0.27 0.16 10.42 -0.07 0.24 -1.06 -0.27 0.15 9.52 -0.03 6.29 -19.84 -6.08 -3.15 6.96 0.01 3.68 -2.26 -2.15 -16.09 0.04 0.07 8.89 0.04 76.28 -26.49 0.09 0.07 27.41 9.99 2.12 -26.01 -0.01 0.05 0.46 10.86 5.84 3.25 6.93 -0.06 -6.45 -3.70 -5.17 15.98 -0.01 -0.07 -7.57 4.56 -73.16 26.51 -0.01 -0.06 -24.20 7.53 -0.26 26.02 0.01 -0.04 -2.29 -0.54 0.82 
1.33 92.10 3.53 97.51 -3.76 -3.87 -9.25 -0.01 -0.02 -18.21 6.98 1.17 -0.02 -41.98 -0.08 -7.11 1.05 -1.66 -0.94 -41.96 0.15 -6.21 -6.14 0.45 9.20 -0.04 0.03 -5.04 1.84 9.87 -0.03 -41.89 -0.05 4.59 22.20 1.53 0.57 -42.05 0.21 -11.27 -13.66 -6.31 0.08 10.46 -0.01 -9.48 17.31 3.89 0.02 9.72 0.02 -2.25 4.01 1.25 0.00 10.15 0.02 -3.51 6.29 1.94 0.05 9.74 0.01 0.24 -1.07 -0.26 0.16 10.42 -0.07 0.25 -1.08 -0.26 0.18 9.52 -0.03 6.32 -20.11 -5.99 -3.15 6.97 0.02 3.88 -2.22 -2.16 -16.09 0.05 0.07 8.99 0.01 75.95 -26.49 0.09 0.08 27.47 9.85 2.01 -26.01 -0.01 0.05 0.49 11.03 5.83 3.25 6.93 -0.05 -6.38 -3.80 -5.20 15.99 -0.01 -0.06 -7.48 4.71 -73.38 26.51 -0.01 -0.06 -24.49 7.62 -0.23 26.02 0.02 -0.04 -2.44 -0.66 0.93 
1.13 92.10 3.84 97.72 -3.90 -4.04 -9.22 -0.00 -0.06 -17.95 6.73 1.51 -0.02 -41.97 -0.11 -7.56 1.72 -1.76 -0.86 -41.97 0.15 -6.26 -6.64 0.28 9.20 -0.05 0.00 -4.51 0.92 10.24 -0.03 -41.87 -0.08 3.85 24.07 1.13 0.52 -42.04 0.19 -10.78 -14.51 -6.32 0.08 10.46 -0.01 -9.57 17.46 4.05 0.01 9.72 0.02 -2.27 4.04 1.29 0.00 10.15 0.03 -3.53 6.34 2.02 0.06 9.74 0.02 0.25 -1.08 -0.27 0.17 10.42 -0.05 0.25 -1.09 -0.27 0.18 9.52 -0.02 6.55 -20.36 -6.16 -3.15 6.97 0.03 4.10 -2.13 -2.23 -16.08 0.04 0.07 9.12 -0.02 75.62 -26.49 0.08 0.08 27.56 9.69 1.88 -26.01 -0.01 0.05 0.54 11.22 5.79 3.25 6.93 -0.03 -6.26 -3.82 -5.19 15.99 -0.01 -0.06 -7.42 4.76 -73.60 26.51 -0.00 -0.06 -24.74 7.67 -0.27 26.02 0.02 -0.04 -2.56 -0.72 1.00 
1.00 92.09 4.14 97.62 -4.02 -4.24 -9.17 0.01 -0.06 -18.34 6.49 1.70 0.02 -41.97 -0.13 -7.30 2.42 -1.78 -0.79 -41.98 0.13 -6.09 -7.10 -0.02 9.21 -0.05 0.00 -3.23 -0.01 10.66 -0.06 -41.85 -0.07 2.96 26.06 0.68 0.45 -42.07 0.18 -10.19 -15.77 -6.15 0.08 10.47 -0.01 -9.51 17.55 4.20 0.01 9.72 0.03 -2.25 4.07 1.33 -0.00 10.15 0.04 -3.49 6.38 2.08 0.06 9.75 0.03 0.26 -1.09 -0.28 0.17 10.41 -0.04 0.27 -1.10 -0.28 0.18 9.52 -0.01 6.88 -20.60 -6.37 -3.15 6.96 0.04 4.39 -1.93 -2.32 -16.06 0.04 0.07 9.24 -0.06 75.28 -26.48 0.06 0.09 27.68 9.48 1.71 -26.01 -0.01 0.05 0.58 11.40 5.74 3.25 6.93 -0.01 -6.07 -3.80 -5.19 15.99 -0.01 -0.05 -7.37 4.80 -73.82 26.51 0.00 -0.06 -24.96 7.72 -0.38 26.01 0.03 -0.05 -2.68 -0.92 0.97 
